<svg xmlns="http://www.w3.org/2000/svg" width="512" height="512" viewBox="0 0 512 512">
  
  <path d="M240 314 L238 358" stroke="#FFD9B3" stroke-width="12" fill="none" stroke-linecap="round" stroke-linejoin="round" opacity="1"/><path d="M272 314 L274 358" stroke="#FFD9B3" stroke-width="12" fill="none" stroke-linecap="round" stroke-linejoin="round" opacity="1"/>
  <rect x="241" y="190" width="30" height="36" rx="10" fill="#FFD9B3"/>
  <circle cx="256" cy="150" r="40" fill="#FFD9B3"/>
  <path d="M216 150 A40 40 0 0 1 296 150 L296 144 Q270 130 246 138 Q226 142 216 146 Z" fill="#6B4420"/>
  <circle cx="208" cy="154" r="13" fill="#6B4420"/><circle cx="304" cy="154" r="13" fill="#6B4420"/>
  <circle cx="242" cy="156" r="4.5" fill="#4A342E"/><circle cx="270" cy="156" r="4.5" fill="#4A342E"/><path d="M245 170 Q256 178 267 170" stroke="#4A342E" stroke-width="4.5" fill="none" stroke-linecap="round" stroke-linejoin="round" opacity="1"/>
  <path d="M230 218 L282 218 L302 314 L210 314 Z" fill="#E86A5C"/>
  <path d="M230 232 L216 292" stroke="#E86A5C" stroke-width="16" fill="none" stroke-linecap="round" stroke-linejoin="round" opacity="1"/>
  <path d="M282 232 L296 292" stroke="#E86A5C" stroke-width="16" fill="none" stroke-linecap="round" stroke-linejoin="round" opacity="1"/>
  <ellipse cx="226" cy="130" rx="14" ry="9" fill="#FFFFFF" opacity="0.4" transform="rotate(-20 226 130)"/>
</svg>