<svg xmlns="http://www.w3.org/2000/svg" width="512" height="512" viewBox="0 0 512 512">
  <rect x="92" y="214" width="328" height="96" rx="20" fill="#B0BEC5"/>
  <rect x="92" y="206" width="58" height="112" rx="16" fill="#F25C54"/>
  <rect x="362" y="206" width="58" height="112" rx="16" fill="#F25C54"/>
  <rect x="162" y="226" width="14" height="26" rx="3" fill="#546E7A"/><rect x="162" y="272" width="14" height="26" rx="3" fill="#546E7A"/><rect x="183" y="226" width="14" height="26" rx="3" fill="#546E7A"/><rect x="183" y="272" width="14" height="26" rx="3" fill="#546E7A"/><rect x="204" y="226" width="14" height="26" rx="3" fill="#546E7A"/><rect x="204" y="272" width="14" height="26" rx="3" fill="#546E7A"/><rect x="225" y="226" width="14" height="26" rx="3" fill="#546E7A"/><rect x="225" y="272" width="14" height="26" rx="3" fill="#546E7A"/><rect x="246" y="226" width="14" height="26" rx="3" fill="#546E7A"/><rect x="246" y="272" width="14" height="26" rx="3" fill="#546E7A"/><rect x="267" y="226" width="14" height="26" rx="3" fill="#546E7A"/><rect x="267" y="272" width="14" height="26" rx="3" fill="#546E7A"/><rect x="288" y="226" width="14" height="26" rx="3" fill="#546E7A"/><rect x="288" y="272" width="14" height="26" rx="3" fill="#546E7A"/><rect x="309" y="226" width="14" height="26" rx="3" fill="#546E7A"/><rect x="309" y="272" width="14" height="26" rx="3" fill="#546E7A"/><rect x="330" y="226" width="14" height="26" rx="3" fill="#546E7A"/><rect x="330" y="272" width="14" height="26" rx="3" fill="#546E7A"/>
  <ellipse cx="130" cy="220" rx="20" ry="8" fill="#FFFFFF" opacity="0.5" transform="rotate(-16 130 220)"/>
</svg>