<svg xmlns="http://www.w3.org/2000/svg" width="512" height="512" viewBox="0 0 512 512">
  <path d="M220 150 Q210.4 126 221.6 108.4 Q232.8 90.8 221.6 73.19999999999999" stroke="#B0BEC5" stroke-width="9" fill="none" stroke-linecap="round" stroke-linejoin="round" opacity="0.7"/><path d="M292 150 Q282.4 126 293.6 108.4 Q304.8 90.8 293.6 73.19999999999999" stroke="#B0BEC5" stroke-width="9" fill="none" stroke-linecap="round" stroke-linejoin="round" opacity="0.7"/>
  <rect x="196" y="96" width="120" height="20" rx="10" fill="#B0BEC5"/>
  <circle cx="256" cy="92" r="16" fill="#90A4AE"/>
  <ellipse cx="256" cy="150" rx="122" ry="24" fill="#CFD8DC"/>
  <path d="M134 150 L142 268 Q144 320 196 322 L316 322 Q368 320 370 268 L378 150 Z" fill="#ECEFF3"/>
  <rect x="84" y="168" width="44" height="18" rx="9" fill="#B0BEC5"/>
  <rect x="384" y="168" width="44" height="18" rx="9" fill="#B0BEC5"/>
  <path d="M136 176 L92 177" stroke="#B0BEC5" stroke-width="0.1" fill="none" stroke-linecap="round" stroke-linejoin="round" opacity="1"/>
  <ellipse cx="170" cy="200" rx="20" ry="46" fill="#FFFFFF" opacity="0.4" transform="rotate(8 170 200)"/>
</svg>