<svg xmlns="http://www.w3.org/2000/svg" width="512" height="512" viewBox="0 0 512 512">
  
  <path d="M240 316 L236 396" stroke="#3A5C2C" stroke-width="16" fill="none" stroke-linecap="round" stroke-linejoin="round" opacity="1"/><path d="M272 316 L276 396" stroke="#3A5C2C" stroke-width="16" fill="none" stroke-linecap="round" stroke-linejoin="round" opacity="1"/>
  <ellipse cx="232" cy="402" rx="16" ry="9" fill="#3A4550"/><ellipse cx="280" cy="402" rx="16" ry="9" fill="#3A4550"/>
  <rect x="216" y="200" width="80" height="118" rx="26" fill="#4C7A3A"/>
  <path d="M222 224 L210 292" stroke="#4C7A3A" stroke-width="15" fill="none" stroke-linecap="round" stroke-linejoin="round" opacity="1"/><circle cx="209" cy="298" r="9" fill="#FFD9B3"/><path d="M290 224 L302 292" stroke="#4C7A3A" stroke-width="15" fill="none" stroke-linecap="round" stroke-linejoin="round" opacity="1"/><circle cx="303" cy="298" r="9" fill="#FFD9B3"/>
  <rect x="244" y="178" width="24" height="28" rx="10" fill="#FFD9B3"/>
  <circle cx="256" cy="146" r="44" fill="#FFD9B3"/>
  <path d="M212 148 A44 44 0 0 1 300 148 L300 140 Q256 112 212 140 Z" fill="#4A342E"/>
  <circle cx="240" cy="146" r="5" fill="#4A342E"/><circle cx="272" cy="146" r="5" fill="#4A342E"/>
  <path d="M242 164 Q256 172 270 164" stroke="#4A342E" stroke-width="4" fill="none" stroke-linecap="round" stroke-linejoin="round" opacity="1"/>
  <path d="M210 138 A46 40 0 0 1 302 138 L302 146 L210 146 Z" fill="#3A5C2C"/>
  <rect x="206" y="140" width="100" height="12" rx="6" fill="#2E4A22"/>
  <circle cx="256" cy="122" r="8" fill="#F5C542"/>
  <rect x="220" y="214" width="72" height="14" rx="6" fill="#2E4A22"/>
  <circle cx="256" cy="221" r="5" fill="#F5C542"/>
</svg>